PathFileType	4	(X/Y/Z)	Walk8.trc
DataRate	CameraRate	NumFrames	NumMarkers	Units	OrigDataRate	OrigDataStartFrame	OrigNumFrames
200.000000	200.000000	4	61	mm	200.000000	461	754
Frame#	Times		RCAR		LUA1		LCAR		LFA1		LWRU		RTB3		RFHD		LElbow		RToe		LTH3		RTH2		RMT5		LWRR		LElbowM		RTB2		RMT1		LFHD		RPSI		STRN		RLFC		C7		RTH1		LTH4		RFA1		LTH2		T10		LLFC		RLMAL		LASI		CLAV		LPSI		RUA1		RBack		RTH3		RElbowM		LACR1		LCAL		RElbow		LMFC		LTB1		RWRR		RTH4		LTB2		LMT5		RTB4		RACR1		RMFC		LTB3		RMMAL		LTB4		LLMAL		LToe		RBHD		RWRU		RTB1		LTH1		LMMAL		LBHD		RCAL		LMT1		RASI
			X1	Y1	Z1	X2	Y2	Z2	X3	Y3	Z3	X4	Y4	Z4	X5	Y5	Z5	X6	Y6	Z6	X7	Y7	Z7	X8	Y8	Z8	X9	Y9	Z9	X10	Y10	Z10	X11	Y11	Z11	X12	Y12	Z12	X13	Y13	Z13	X14	Y14	Z14	X15	Y15	Z15	X16	Y16	Z16	X17	Y17	Z17	X18	Y18	Z18	X19	Y19	Z19	X20	Y20	Z20	X21	Y21	Z21	X22	Y22	Z22	X23	Y23	Z23	X24	Y24	Z24	X25	Y25	Z25	X26	Y26	Z26	X27	Y27	Z27	X28	Y28	Z28	X29	Y29	Z29	X30	Y30	Z30	X31	Y31	Z31	X32	Y32	Z32	X33	Y33	Z33	X34	Y34	Z34	X35	Y35	Z35	X36	Y36	Z36	X37	Y37	Z37	X38	Y38	Z38	X39	Y39	Z39	X40	Y40	Z40	X41	Y41	Z41	X42	Y42	Z42	X43	Y43	Z43	X44	Y44	Z44	X45	Y45	Z45	X46	Y46	Z46	X47	Y47	Z47	X48	Y48	Z48	X49	Y49	Z49	X50	Y50	Z50	X51	Y51	Z51	X52	Y52	Z52	X53	Y53	Z53	X54	Y54	Z54	X55	Y55	Z55	X56	Y56	Z56	X57	Y57	Z57	X58	Y58	Z58	X59	Y59	Z59	X60	Y60	Z60	X61	Y61	Z61

461	2.305	-403.27	876.47	296.47	-600.33	1284.3	-290.67	-531.4	802.53	-296.78	-622.22	980.28	-314.08	-599.35	847.15	-297.91	-760.46	247.61	107.63	-601.56	1636.7	-112.02	-634.25	1131	-310.4	-786.89	49.665	136.79	-504.84	614.19	-174.37	-490.15	695.69	169.57	-868.7	91.443	177.46	-535.6	857.28	-245.72	-672.86	1126.1	-243.3	-715.86	322.84	176.68	-821.63	65.094	110.25	-597.1	1647.9	29.13	-726.1	1020.7	27.535	-442.93	1251.9	-30.247	-585.05	492.06	188.52	-623.63	1510.5	-33.986	-565.31	790.84	188.72	-522.43	703.69	-190.42	-537.93	1005.1	298.97	-454.63	720.85	-170.11	-725.99	1287.3	-24.48	-493.51	513.44	-164.35	-886.97	198.25	139.92	-510.69	1033.1	-150.85	-491.01	1425.2	-31.812	-726.58	1019.5	-50.005	-570.78	1301.5	232.17	-699.41	1426.6	102.01	-563.03	600.6	189.58	-625.91	1126	204.12	-553.04	1459.5	-200.45	-591.29	26.317	-82.921	-598	1148.5	279.92	-482.32	520.8	-34.968	-445.07	377.23	-88.568	-419.22	911.95	240.69	-561.45	694.91	193.32	-484.2	291.78	-157.12	-435.5	20.968	-162.97	-687.36	303.71	115.52	-546.4	1468.1	126.64	-546.71	491.29	60.73	-475.91	193.37	-85.961	-834.55	186.35	69.053	-459.56	288.38	-85.995	-532.81	67.742	-125.81	-333.66	29.993	-94.835	-424.83	1687	-77.311	-471.33	885.32	293.06	-615.72	363.1	125.92	-536.78	795.38	-203.01	-505.35	87.976	-44.59	-423.27	1691.4	-1.5383	-940.82	210.54	80.761	-386.89	38.343	-79.156	-516.34	1036.7	131.93
462	2.31	-401.78	875.44	296.42	-593.78	1285.2	-291.34	-520.71	804.28	-297.83	-613.22	981.07	-315.27	-589.25	848.06	-298.9	-749.57	248.37	107.75	-596.72	1637.5	-112.34	-626.53	1131.7	-311.51	-774.59	50.585	136.97	-501.77	614.37	-174.53	-482.55	697.63	169.74	-856.83	92.095	177.48	-525.61	858.88	-246.68	-665.45	1126.3	-244.63	-705.32	323.88	176.76	-809.47	66.047	110.36	-592.32	1648.7	28.816	-721.09	1021.5	26.914	-438.06	1252.7	-30.323	-575.34	493.31	188.66	-618.76	1511.3	-34.427	-558.84	792	188.63	-518.79	703.98	-190.63	-535.41	1005.3	298.35	-450.9	720.73	-169.91	-721.05	1288	-25.289	-491.43	513.38	-164.41	-875.94	198.62	139.87	-505.57	1033.8	-150.97	-486.15	1426.1	-32.041	-721.59	1020.3	-50.611	-566.84	1302.1	231.68	-694.86	1427.3	101.23	-554.56	601.79	189.65	-622.12	1126.7	203.15	-547.84	1460.4	-200.75	-591.3	26.342	-82.91	-594.37	1149	278.94	-480.67	520.64	-34.944	-443.85	376.96	-88.575	-417.35	911.06	240.63	-553.94	696.09	193.38	-483.1	291.56	-157.18	-435.5	20.967	-162.93	-676.64	304.69	115.69	-541.91	1468.8	126.4	-536.55	492.62	60.966	-475.44	193.22	-85.912	-823.71	186.49	69.037	-458.74	288.17	-85.947	-532.75	67.797	-125.74	-333.65	29.979	-94.821	-420.01	1687.8	-77.575	-469.69	884.98	292.92	-605.3	364.33	126.22	-532.44	795.78	-203.23	-505.32	87.979	-44.522	-418.46	1692.2	-1.8	-929.96	210.43	80.707	-386.91	38.37	-79.186	-511.61	1037.5	131.91
463	2.315	-400.33	874.43	296.4	-587.23	1286.2	-291.98	-510	806.1	-298.86	-604.19	981.9	-316.44	-579.11	849.03	-299.87	-738.52	248.98	107.84	-591.89	1638.3	-112.61	-618.79	1132.4	-312.59	-761.89	51.349	137.08	-498.77	614.55	-174.67	-475	699.58	169.88	-844.6	92.476	177.48	-515.59	860.53	-247.61	-658.02	1126.6	-245.91	-694.7	324.81	176.82	-796.93	66.81	110.4	-587.53	1649.5	28.539	-716.11	1022.4	26.345	-433.21	1253.5	-30.371	-565.67	494.58	188.79	-613.9	1512.1	-34.84	-552.37	793.17	188.54	-515.19	704.28	-190.83	-532.92	1005.5	297.77	-447.21	720.59	-169.69	-716.12	1288.7	-26.081	-489.41	513.33	-164.45	-864.68	198.69	139.79	-500.49	1034.5	-151.1	-481.3	1426.9	-32.246	-716.62	1021.1	-51.172	-562.91	1302.6	231.2	-690.31	1427.9	100.48	-546.11	603.02	189.71	-618.37	1127.4	202.22	-542.65	1461.3	-201.02	-591.32	26.368	-82.899	-590.78	1149.4	278.01	-479.04	520.48	-34.906	-442.71	376.72	-88.549	-415.52	910.19	240.59	-546.44	697.29	193.45	-482.01	291.35	-157.22	-435.5	20.953	-162.89	-665.82	305.6	115.85	-537.43	1469.5	126.19	-526.47	493.99	61.188	-475	193.07	-85.841	-812.61	186.5	68.999	-457.99	287.97	-85.872	-532.68	67.86	-125.69	-333.63	29.961	-94.805	-415.2	1688.6	-77.802	-468.09	884.66	292.81	-594.84	365.56	126.5	-528.13	796.17	-203.44	-505.29	87.984	-44.454	-413.67	1693.1	-2.0194	-918.91	209.97	80.652	-386.93	38.398	-79.219	-506.9	1038.4	131.88
464	2.32	-398.92	873.46	296.41	-580.69	1287.1	-292.58	-499.26	807.98	-299.88	-595.13	982.77	-317.57	-568.93	850.05	-300.82	-727.32	249.44	107.92	-587.07	1639.1	-112.85	-611.06	1133.1	-313.64	-748.83	51.957	137.14	-495.83	614.73	-174.8	-467.5	701.54	169.99	-832.04	92.593	177.44	-505.54	862.22	-248.52	-650.56	1127	-247.15	-684	325.62	176.87	-784.05	67.385	110.4	-582.75	1650.4	28.297	-711.15	1023.2	25.829	-428.37	1254.3	-30.395	-556.06	495.85	188.89	-609.04	1512.8	-35.227	-545.91	794.35	188.46	-511.65	704.57	-191.01	-530.48	1005.7	297.23	-443.59	720.42	-169.46	-711.21	1289.5	-26.853	-487.45	513.28	-164.47	-853.22	198.47	139.71	-495.47	1035.3	-151.22	-476.45	1427.6	-32.429	-711.67	1021.8	-51.687	-559	1303.1	230.74	-685.77	1428.6	99.742	-537.7	604.26	189.77	-614.67	1128.1	201.33	-537.46	1462.2	-201.25	-591.33	26.393	-82.888	-587.24	1149.9	277.12	-477.43	520.31	-34.855	-441.63	376.49	-88.5	-413.74	909.34	240.59	-538.95	698.52	193.55	-480.94	291.14	-157.25	-435.5	20.928	-162.85	-654.91	306.43	115.98	-532.94	1470.2	125.99	-516.48	495.4	61.393	-474.59	192.93	-85.756	-801.26	186.37	68.936	-457.29	287.78	-85.775	-532.61	67.93	-125.65	-333.62	29.94	-94.788	-410.4	1689.4	-77.995	-466.54	884.38	292.73	-584.33	366.77	126.77	-523.86	796.54	-203.62	-505.26	87.99	-44.386	-408.88	1693.9	-2.2002	-907.65	209.16	80.591	-386.94	38.426	-79.253	-502.18	1039.2	131.83
